<?xml version="1.0" encoding="utf-8"?>
<!-- Generator: Adobe Illustrator 25.1.0, SVG Export Plug-In . SVG Version: 6.00 Build 0)  -->
<svg version="1.1" id="Capa_1" xmlns="http://www.w3.org/2000/svg" xmlns:xlink="http://www.w3.org/1999/xlink" x="0px" y="0px"
	 viewBox="0 0 202 202" style="enable-background:new 0 0 202 202;" xml:space="preserve">
<style type="text/css">
	.st0{fill:#FFFFFF;}
</style>
<path class="st0" d="M134.4,97.3c11.1-4.9,17.3-14.1,17.3-25.8c0-10.4-4.2-18.8-12.1-24.4c-6.6-4.6-15.8-7.1-25.9-7.1H55.2v20.5
	h10.3v80.9H55.2V162h54.9c9,0,21.7-1.4,31.8-7.8c9.8-6.3,14.8-15.8,14.8-28.3C156.8,111.5,148.3,100.9,134.4,97.3z M107.3,88.3H89.7
	V60.5h15.8c15.7,0,22.1,3.8,22.1,13.2C127.5,85.8,116.5,88.3,107.3,88.3z M89.7,109.5h18.6c17.2,0,24.3,4.5,24.3,15.5
	c0,11-8.4,16.5-25.1,16.5H89.7V109.5z"/>
</svg>
