<?xml version="1.0" encoding="utf-8"?>
<!-- Generator: Adobe Illustrator 25.1.0, SVG Export Plug-In . SVG Version: 6.00 Build 0)  -->
<svg version="1.1" id="Layer_1" xmlns="http://www.w3.org/2000/svg" xmlns:xlink="http://www.w3.org/1999/xlink" x="0px" y="0px"
	 viewBox="0 0 1024 1024" style="enable-background:new 0 0 1024 1024;" xml:space="preserve">
<style type="text/css">
	.st0{fill:#FFFDF5;}
</style>
<path class="st0" d="M322.8,298.2v-63.8C98,234.4,81.2,383,81.2,383s-1.9-260.2,241.7-260.2V59.2l142.2,119.4L322.8,298.2
	L322.8,298.2z M391.6,750.6c-2.9-14.5-4.4-37.1-4.4-67.8l1-107.9c0-40.1-4.2-67.6-12.4-82.7c-8.2-15.1-22.3-27.4-42.5-37.1
	c-20.3-9.8-51-14.7-92.1-14.7c-45.3,0-79.6,8.2-102.5,24.4C115.7,481,99.3,506,90,539.7l83.8,15.2c5.7-16.2,13.2-27.6,22.3-34.2
	c9.1-6.4,21.9-9.6,38.4-9.6c24.4,0,40.9,3.8,49.7,11.4c8.7,7.4,13.2,20.1,13.2,37.8v9.2c-16.8,7.2-46.6,14.6-89.8,22.8
	c-32,6.1-56.5,13.3-73.4,21.4c-16.9,8.2-30.2,20-39.6,35.5c-9.5,15.5-14.2,33.2-14.2,52.9c0,29.6,10.4,54.3,31.1,73.9
	c20.7,19.6,49.1,29.4,85,29.4c20.4,0,39.6-3.8,57.5-11.5c18-7.6,34.9-19.1,50.7-34.5c0.6,1.8,1.6,5.4,3.2,10.8
	c3.5,12.1,6.4,21.2,8.9,27.3h91.4C400,780.8,394.5,765.2,391.6,750.6L391.6,750.6z M297.5,648.2c0,22.2-1.2,37.3-3.6,45.1
	c-3.5,12-10.9,22.2-22,30.5c-15,10.9-31,16.4-47.6,16.4c-14.9,0-27.2-4.7-36.8-14.2c-9.6-9.3-14.5-20.6-14.5-33.4
	c0-13.3,6-24.1,18.1-32.6c7.9-5.3,24.5-10.7,50.2-16.2c25.7-5.4,44.4-10.2,56.2-14V648.2L297.5,648.2z M782.9,240.2H679.6
	L491.2,807.6h103.5l39.9-128.8H828l42.2,128.8h106.2L782.9,240.2z M664.7,583.1L730,372.7l66.6,210.4H664.7z"/>
</svg>
