<?xml version="1.0" encoding="utf-8"?>
<!-- Generator: Adobe Illustrator 25.1.0, SVG Export Plug-In . SVG Version: 6.00 Build 0)  -->
<svg version="1.1" id="Layer_1" xmlns="http://www.w3.org/2000/svg" xmlns:xlink="http://www.w3.org/1999/xlink" x="0px" y="0px"
	 viewBox="0 0 1000 1000" style="enable-background:new 0 0 1000 1000;" xml:space="preserve">
<style type="text/css">
	.st0{fill:#FFFFFF;}
</style>
<g>
	<path class="st0" d="M649.2,403c-33.8-18.7-68-36.7-102.3-54.6c-26.7-13.9-53.9-14.1-80.9-0.7c-16.2,8.1-28.5,20.2-37.1,36.7
		c85.6,45.6,170.7,90.9,256.4,136.4c1.6-3.7,3.2-6.8,4.4-10.1C705.3,469.1,689,424.9,649.2,403z"/>
	<path class="st0" d="M748.6,133.7c-6.8-9.4-16.1-15-27.3-17.5c-12.3-2.7-19.2,0.1-25.7,10.5c-39,62.2-77.9,124.4-116.9,186.6
		c-1.2,2-2.4,4-3.5,6c0.7,0.8,1.1,1.5,1.7,1.8c26.6,14.2,53.2,28.4,80.2,42.8c1-1.5,1.5-2.3,1.9-3.1c30.6-69,61.1-138.1,91.7-207
		C753.8,146.4,753.1,139.9,748.6,133.7z"/>
	<path class="st0" d="M659.4,547.3c5.2-13.3-1.3-28.3-14.6-33.5c-13.2-5.3-28.3,1.2-33.5,14.6c-2.7,6.9-59.3,153.1-13.4,255.5
		c-21.8-0.2-56.1-5.2-104.3-23.4c-9-27.9-15.4-71.5,4.2-122.7c0,0-46.8,53.5-54.6,101.1c-10.1-4.9-20.6-10.1-31.6-16
		c-11-6-21.2-11.8-30.9-17.5c35.4-32.8,54-101.4,54-101.4c-31.8,44.6-71.7,63.4-99.9,71.3c-42-30.2-65.1-56.1-77.3-74
		C368.3,583,458.8,455,463.1,448.9c8.2-11.7,5.3-27.9-6.4-36c-11.7-8.2-27.8-5.3-36,6.4c-1,1.4-101.3,142.4-199.7,132
		c-7.6-0.8-15.4,1.8-21,7.4c-5.5,5.5-8.3,13.2-7.5,21c1,9.1,14.3,92.1,194.7,188.9c101.6,54.5,170.3,67.3,212.2,67.3
		c32.6,0,49.2-7.6,52.7-9.6c6.9-3.6,11.8-10.1,13.3-17.9c1.5-7.6-0.5-15.6-5.5-21.6C596.5,710.4,658.8,548.9,659.4,547.3z"/>
</g>
</svg>
