<?xml version="1.0" encoding="utf-8"?>
<!-- Generator: Adobe Illustrator 25.1.0, SVG Export Plug-In . SVG Version: 6.00 Build 0)  -->
<svg version="1.1" id="Layer_1" xmlns="http://www.w3.org/2000/svg" xmlns:xlink="http://www.w3.org/1999/xlink" x="0px" y="0px"
	 viewBox="0 0 24 24" style="enable-background:new 0 0 24 24;" xml:space="preserve">
<style type="text/css">
	.st0{fill:#FFFFFF;}
</style>
<path class="st0" d="M10.8,2c-0.5,0-1,0.2-1.4,0.6L9,3H4C3.4,3,3,3.4,3,4c0,0.6,0.4,1,1,1c0,0,0,0,0,0h16c0.6,0,1-0.4,1-1
	s-0.4-1-1-1c0,0,0,0,0,0h-5l-0.4-0.4C14.2,2.2,13.7,2,13.2,2H10.8z M4.4,7l1.5,13.3c0.1,1,1,1.7,2,1.7h8.2c1,0,1.9-0.7,2-1.7L19.6,7
	H4.4z"/>
</svg>
