<?xml version="1.0" encoding="utf-8"?>
<!-- Generator: Adobe Illustrator 25.1.0, SVG Export Plug-In . SVG Version: 6.00 Build 0)  -->
<svg version="1.1" id="Layer_1" xmlns="http://www.w3.org/2000/svg" xmlns:xlink="http://www.w3.org/1999/xlink" x="0px" y="0px"
	 viewBox="0 0 16 16" style="enable-background:new 0 0 16 16;" xml:space="preserve">
<style type="text/css">
	.st0{fill:#344767;stroke:#344767;stroke-miterlimit:10;}
</style>
<path class="st0" d="M1,9.9c0.3,0,0.5,0.2,0.5,0.5v2.5c0,0.6,0.4,1,0.9,1h11.3c0.5,0,0.9-0.4,0.9-1v-2.5c0-0.3,0.2-0.5,0.5-0.5
	s0.5,0.2,0.5,0.5v2.5c0,1.1-0.8,2-1.9,2H2.4c-1,0-1.9-0.9-1.9-2v-2.5C0.5,10.1,0.7,9.9,1,9.9z"/>
<path class="st0" d="M7.7,11.9c0.2,0.2,0.5,0.2,0.7,0c0,0,0,0,0,0l2.8-3c0.2-0.2,0.2-0.5,0-0.7s-0.5-0.2-0.7,0l-2,2.1V1.5
	C8.5,1.2,8.3,1,8,1C7.7,1,7.5,1.2,7.5,1.5v8.8l-2-2.1C5.3,8,5,8,4.8,8.1s-0.2,0.5,0,0.7L7.7,11.9z"/>
</svg>
