<?xml version="1.0" encoding="utf-8"?>
<!-- Generator: Adobe Illustrator 25.1.0, SVG Export Plug-In . SVG Version: 6.00 Build 0)  -->
<svg version="1.1" id="Layer_1" xmlns="http://www.w3.org/2000/svg" xmlns:xlink="http://www.w3.org/1999/xlink" x="0px" y="0px"
	 viewBox="0 0 16 16" style="enable-background:new 0 0 16 16;" xml:space="preserve">
<style type="text/css">
	.st0{fill:#344767;}
	.st1{fill-rule:evenodd;clip-rule:evenodd;fill:#344767;}
</style>
<path class="st0" d="M6,13c0,1.1-1.1,2-2.5,2S1,14.1,1,13c0-1.1,1.1-2,2.5-2S6,11.9,6,13z M15,11c0,1.1-1.1,2-2.5,2S10,12.1,10,11
	s1.1-2,2.5-2S15,9.9,15,11z"/>
<path class="st1" d="M14,11V2h1v9H14z M6,3v10H5V3H6z"/>
<path class="st0" d="M5,2.9c0-0.5,0.4-0.9,0.9-1l8-0.8c0.5-0.1,1,0.3,1.1,0.9c0,0,0,0.1,0,0.1V3L5,4V2.9z"/>
</svg>
