<?xml version="1.0" encoding="utf-8"?>
<!-- Generator: Adobe Illustrator 25.1.0, SVG Export Plug-In . SVG Version: 6.00 Build 0)  -->
<svg version="1.1" id="Layer_1" xmlns="http://www.w3.org/2000/svg" xmlns:xlink="http://www.w3.org/1999/xlink" x="0px" y="0px"
	 viewBox="0 0 14 14" style="enable-background:new 0 0 14 14;" xml:space="preserve">
<style type="text/css">
	.st0{fill-rule:evenodd;clip-rule:evenodd;fill:#FFFFFE;}
</style>
<path class="st0" d="M7.9,6.6l0.9-0.9c0.3-0.3,0.8-0.3,1.1,0c0.3,0.3,0.3,0.8,0,1.1L7.2,9.5L4.5,6.8C4.2,6.5,4.2,6,4.5,5.7
	c0.3-0.3,0.8-0.3,1.1,0l0.9,0.9l0-3.7c0-0.4,0.3-0.8,0.7-0.8s0.7,0.3,0.7,0.8V6.6z M10.9,10.2c0,0.4-0.3,0.7-0.7,0.7H4.2
	c-0.4,0-0.7-0.3-0.7-0.7s0.3-0.7,0.7-0.7h5.9C10.5,9.5,10.9,9.8,10.9,10.2z"/>
</svg>
