<?xml version="1.0" encoding="utf-8"?>
<!-- Generator: Adobe Illustrator 25.1.0, SVG Export Plug-In . SVG Version: 6.00 Build 0)  -->
<svg version="1.1" id="Layer_1" xmlns="http://www.w3.org/2000/svg" xmlns:xlink="http://www.w3.org/1999/xlink" x="0px" y="0px"
	 viewBox="0 0 48 48" style="enable-background:new 0 0 48 48;" xml:space="preserve">
<style type="text/css">
	.st0{fill:#344767;}
</style>
<path class="st0" d="M18.4,0l-1.2,6.1c-2,0.7-3.8,1.8-5.4,3.1L6,7.1l-5.6,9.7l4.7,4c-0.2,1-0.3,2-0.3,3.1s0.1,2.1,0.3,3.1l-4.7,4
	L6,40.9l5.8-2c1.6,1.3,3.4,2.4,5.4,3.1l1.2,6.1h11.2l1.2-6.1c2-0.7,3.8-1.8,5.4-3.1l5.8,2l5.6-9.7l-4.7-4c0.2-1,0.3-2,0.3-3.1
	s-0.1-2.1-0.3-3.1l4.7-4L42,7.1l-5.8,2c-1.6-1.3-3.4-2.4-5.4-3.1L29.6,0H18.4z M24,14.4c5.3,0,9.6,4.3,9.6,9.6s-4.3,9.6-9.6,9.6
	s-9.6-4.3-9.6-9.6S18.7,14.4,24,14.4z"/>
</svg>
