<?xml version="1.0" encoding="utf-8"?>
<!-- Generator: Adobe Illustrator 25.1.0, SVG Export Plug-In . SVG Version: 6.00 Build 0)  -->
<svg version="1.1" id="Layer_1" xmlns="http://www.w3.org/2000/svg" xmlns:xlink="http://www.w3.org/1999/xlink" x="0px" y="0px"
	 viewBox="0 0 104 104" style="enable-background:new 0 0 104 104;" xml:space="preserve">
<style type="text/css">
	.st0{fill-rule:evenodd;clip-rule:evenodd;fill:none;stroke:#344767;stroke-width:10;stroke-linecap:round;stroke-linejoin:round;}
	.st1{fill:none;stroke:#344767;stroke-width:8;stroke-linecap:round;stroke-linejoin:round;}
</style>
<path id="Layer-1" class="st0" d="M7.7,14.2h88.6c1.6,0,2.8,1.4,2.8,3.1V84c0,1.7-1.3,3.1-2.8,3.1H7.7c-1.6,0-2.8-1.4-2.8-3.1V17.4
	C4.9,15.6,6.2,14.2,7.7,14.2z"/>
<path id="Layer-2" class="st1" d="M84.4,45.8c-1.1-5.3-4.7-9.4-11.3-9.4c-7.7,0-13.6,6.2-13.6,15.4l0,0c0,9.6,5.5,15.2,12.9,15.2
	c7.1,0,10.8-4.4,12-9.9"/>
<path id="Layer-3" class="st1" d="M44.8,45.5c-1.1-5.4-4.7-9.5-11.3-9.5C25.9,36,20,42.3,20,51.6l0,0c0,9.7,5.5,15.4,12.9,15.4
	c7.1,0,10.8-4.4,12-10"/>
</svg>
