<?xml version="1.0" encoding="utf-8"?>
<!-- Generator: Adobe Illustrator 25.1.0, SVG Export Plug-In . SVG Version: 6.00 Build 0)  -->
<svg version="1.1" id="Layer_1" xmlns="http://www.w3.org/2000/svg" xmlns:xlink="http://www.w3.org/1999/xlink" x="0px" y="0px"
	 viewBox="0 0 700 700" style="enable-background:new 0 0 700 700;" xml:space="preserve">
<style type="text/css">
	.st0{fill:#FEF2F3;stroke:#FFFFFF;stroke-width:4;stroke-miterlimit:10;}
</style>
<g>
	<path class="st0" d="M497,316.1L496,313h-35l-1.1,3.1L356,593h37.4l26.2-70h117.7l26.2,70H601L497,316.1z M432.8,488l45.7-122.1
		L524.2,488H432.8z"/>
	<path class="st0" d="M356,173h70v-35H286v-35h-35v35H111v35h210c0,56.2-31.8,109.3-70,153.2c-29.9-34.4-56.3-74.8-66-118.2h-35.5
		c10.1,53.9,42,103,77.7,143.6c-52.1,52-106.8,85.8-107.8,86.4l18.2,29.9c4.5-2.7,59.9-36.8,113.8-90.5
		c20.7,20.7,41.4,38.6,58.8,52.2l21.6-27.5c-16.7-13-36.7-30.2-56.6-50.1C318.8,302.5,356,240.7,356,173L356,173z"/>
</g>
</svg>
