<?xml version="1.0" encoding="utf-8"?>
<!-- Generator: Adobe Illustrator 25.1.0, SVG Export Plug-In . SVG Version: 6.00 Build 0)  -->
<svg version="1.1" id="Layer_1" xmlns="http://www.w3.org/2000/svg" xmlns:xlink="http://www.w3.org/1999/xlink" x="0px" y="0px"
	 viewBox="0 0 16 16" style="enable-background:new 0 0 16 16;" xml:space="preserve">
<style type="text/css">
	.st0{fill:#344767;stroke:#344767;stroke-miterlimit:10;}
</style>
<path class="st0" d="M1.4,9.7c0.2,0,0.4,0.2,0.4,0.4v2.2c0,0.5,0.4,0.9,0.9,0.9h10.5c0.5,0,0.9-0.4,0.9-0.9v-2.2
	c0-0.2,0.2-0.4,0.4-0.4c0.2,0,0.4,0.2,0.4,0.4v2.2c0,1-0.8,1.8-1.8,1.8H2.7c-1,0-1.8-0.8-1.8-1.8v-2.2C1,9.9,1.2,9.7,1.4,9.7z"/>
<path class="st0" d="M7.7,1.3c0.2-0.2,0.4-0.2,0.6,0c0,0,0,0,0,0l2.6,2.6c0.2,0.2,0.2,0.5,0,0.6c-0.2,0.2-0.5,0.2-0.6,0L8.4,2.6v7.7
	c0,0.2-0.2,0.4-0.4,0.4s-0.4-0.2-0.4-0.4V2.6L5.7,4.5c-0.2,0.2-0.5,0.2-0.6,0s-0.2-0.5,0-0.6C5.1,3.9,7.7,1.3,7.7,1.3z"/>
</svg>
