<?xml version="1.0" encoding="utf-8"?>
<!-- Generator: Adobe Illustrator 25.1.0, SVG Export Plug-In . SVG Version: 6.00 Build 0)  -->
<svg version="1.1" id="Capa_1" xmlns="http://www.w3.org/2000/svg" xmlns:xlink="http://www.w3.org/1999/xlink" x="0px" y="0px"
	 viewBox="0 0 58 58" style="enable-background:new 0 0 58 58;" xml:space="preserve">
<style type="text/css">
	.st0{fill:#FEF6F7;stroke:#FFFFFF;stroke-miterlimit:10;}
</style>
<g>
	<path class="st0" d="M50.8,45.4L39.7,14.7c0,0,0,0,0,0c0-0.1-0.1-0.1-0.1-0.2c0,0-0.1-0.1-0.1-0.1c0,0-0.1-0.1-0.1-0.1
		c-0.1,0-0.1-0.1-0.2-0.1c0,0,0,0,0,0c0,0-0.1,0-0.1,0c-0.1,0-0.1,0-0.2,0c-0.1,0-0.1,0-0.2,0c0,0-0.1,0-0.1,0c0,0,0,0,0,0
		c-0.1,0-0.1,0.1-0.2,0.1c0,0-0.1,0.1-0.1,0.1c0,0-0.1,0.1-0.1,0.1c0,0.1-0.1,0.1-0.1,0.2c0,0,0,0,0,0L26.7,45.4
		c-0.2,0.5,0.1,1,0.6,1.2c0.1,0,0.2,0.1,0.3,0.1c0.4,0,0.7-0.2,0.9-0.6l3.8-10.6h12.9l3.8,10.6c0.1,0.4,0.5,0.6,0.9,0.6
		c0.1,0,0.2,0,0.3-0.1C50.8,46.5,51,45.9,50.8,45.4z M33,33.7l5.8-15.9l5.8,15.9H33z"/>
	<path class="st0" d="M16.4,25.9C16.4,25.9,16.4,25.9,16.4,25.9c0-0.1-0.1-0.1-0.1-0.2c0,0,0-0.1-0.1-0.1c0,0-0.1-0.1-0.1-0.1
		c-0.1,0-0.1-0.1-0.2-0.1c0,0,0,0,0,0c0,0-0.1,0-0.1,0c-0.1,0-0.1,0-0.2,0c-0.1,0-0.1,0-0.2,0c0,0-0.1,0-0.1,0c0,0,0,0,0,0
		c-0.1,0-0.1,0.1-0.2,0.1c0,0-0.1,0.1-0.1,0.1c0,0-0.1,0.1-0.1,0.1c0,0.1-0.1,0.1-0.1,0.2c0,0,0,0,0,0L7.2,45.4
		c-0.2,0.5,0.1,1,0.5,1.2c0.1,0,0.2,0.1,0.3,0.1c0.4,0,0.7-0.2,0.9-0.6l2.6-6.9h7.9l2.6,6.9c0.1,0.4,0.5,0.6,0.9,0.6
		c0.1,0,0.2,0,0.3-0.1c0.5-0.2,0.7-0.7,0.5-1.2L16.4,25.9z M12.2,37.4l3.3-8.6l3.3,8.6H12.2z"/>
	<path class="st0" d="M10.8,17.8c0.2,0,0.5-0.1,0.7-0.3l3.1-3.1v7.1c0,0.5,0.4,0.9,0.9,0.9s0.9-0.4,0.9-0.9v-7.1l3.1,3.1
		c0.2,0.2,0.4,0.3,0.7,0.3s0.5-0.1,0.7-0.3c0.4-0.4,0.4-1,0-1.3l-4.7-4.7c-0.1-0.1-0.2-0.2-0.3-0.2c-0.2-0.1-0.5-0.1-0.7,0
		c-0.1,0-0.2,0.1-0.3,0.2l-4.7,4.7c-0.4,0.4-0.4,1,0,1.3C10.4,17.7,10.6,17.8,10.8,17.8z"/>
</g>
</svg>
